<svg width="40" height="41" viewBox="0 0 40 41" fill="none" xmlns="http://www.w3.org/2000/svg">
<circle cx="20" cy="20.8643" r="20" fill="url(#paint0_linear_228_1136)"/>
<path d="M10.8666 12H28.8666C29.1318 12 29.3861 12.1054 29.5737 12.2929C29.7612 12.4804 29.8666 12.7348 29.8666 13V29C29.8666 29.2652 29.7612 29.5196 29.5737 29.7071C29.3861 29.8946 29.1318 30 28.8666 30H10.8666C10.6014 30 10.347 29.8946 10.1595 29.7071C9.97193 29.5196 9.86658 29.2652 9.86658 29V13C9.86658 12.7348 9.97193 12.4804 10.1595 12.2929C10.347 12.1054 10.6014 12 10.8666 12ZM27.8666 16.238L19.9386 23.338L11.8666 16.216V28H27.8666V16.238ZM12.3776 14L19.9276 20.662L27.3686 14H12.3776Z" fill="white"/>
<defs>
<linearGradient id="paint0_linear_228_1136" x1="40" y1="0.864682" x2="0" y2="0.864682" gradientUnits="userSpaceOnUse">
<stop stop-color="#F3A3A3"/>
<stop offset="0.433035" stop-color="#D2177E"/>
<stop offset="0.740327" stop-color="#CD1590"/>
<stop offset="1" stop-color="#BD10C4"/>
</linearGradient>
</defs>
</svg>
