<svg width="40" height="41" viewBox="0 0 40 41" fill="none" xmlns="http://www.w3.org/2000/svg">
<circle cx="20" cy="20.8643" r="20" fill="url(#paint0_linear_228_1157)"/>
<path d="M17.2326 19.682C18.1709 21.3305 19.5361 22.6957 21.1846 23.634L22.0686 22.396C22.2107 22.1969 22.4209 22.0569 22.6594 22.0023C22.8978 21.9478 23.148 21.9825 23.3626 22.1C24.7769 22.8729 26.3388 23.3378 27.9456 23.464C28.1964 23.4839 28.4304 23.5975 28.6011 23.7823C28.7718 23.9671 28.8666 24.2094 28.8666 24.461V28.923C28.8666 29.1706 28.7748 29.4094 28.6089 29.5932C28.4431 29.777 28.2149 29.8927 27.9686 29.918C27.4386 29.973 26.9046 30 26.3666 30C17.8066 30 10.8666 23.06 10.8666 14.5C10.8666 13.962 10.8936 13.428 10.9486 12.898C10.9738 12.6517 11.0896 12.4235 11.2734 12.2576C11.4572 12.0917 11.696 11.9999 11.9436 12H16.4056C16.6571 12 16.8995 12.0948 17.0843 12.2655C17.269 12.4361 17.3827 12.6702 17.4026 12.921C17.5288 14.5278 17.9937 16.0897 18.7666 17.504C18.884 17.7186 18.9188 17.9687 18.8642 18.2072C18.8097 18.4456 18.6696 18.6558 18.4706 18.798L17.2326 19.682ZM14.7106 19.025L16.6106 17.668C16.0714 16.5041 15.7019 15.2688 15.5136 14H12.8766C12.8706 14.166 12.8676 14.333 12.8676 14.5C12.8666 21.956 18.9106 28 26.3666 28C26.5336 28 26.7006 27.997 26.8666 27.99V25.353C25.5977 25.1646 24.3625 24.7952 23.1986 24.256L21.8416 26.156C21.2952 25.9437 20.7646 25.6931 20.2536 25.406L20.1956 25.373C18.2342 24.2567 16.6099 22.6324 15.4936 20.671L15.4606 20.613C15.1735 20.102 14.9229 19.5713 14.7106 19.025Z" fill="white"/>
<defs>
<linearGradient id="paint0_linear_228_1157" x1="40" y1="0.864682" x2="0" y2="0.864682" gradientUnits="userSpaceOnUse">
<stop stop-color="#F3A3A3"/>
<stop offset="0.433035" stop-color="#D2177E"/>
<stop offset="0.740327" stop-color="#CD1590"/>
<stop offset="1" stop-color="#BD10C4"/>
</linearGradient>
</defs>
</svg>
